<?xml version="1.0" encoding="UTF-8"?>
<svg id="a" data-name="V2" xmlns="http://www.w3.org/2000/svg" width="1026.07" height="944.16" viewBox="0 0 1026.07 944.16">
  <path d="M431.89,178.88c-2.01-2.09-4.36-3.14-7.04-3.14h-118.43c-2.6,0-4.88.99-6.85,2.95-.02.02-.05.04-.07.06-.02.02-.04.04-.06.06-.02.02-.04.04-.06.06-.02.02-.04.05-.06.07-1.96,1.97-2.95,4.25-2.95,6.85v118.43c0,2.68,1.05,5.03,3.14,7.04,2.1,2.01,4.54,3.02,7.33,3.02h15.36c2.79,0,5.24-1.01,7.33-3.02,2.1-2.01,3.14-4.36,3.14-7.04v-90.92l.08-1.18,1.18-.08h90.92c2.68,0,5.03-1.05,7.04-3.14,2.01-2.09,3.02-4.54,3.02-7.33v-15.36c0-2.79-1.01-5.24-3.02-7.33Z" style="fill: #231f20;"/>
  <path d="M299.5,505.61c-2.09,2.01-3.14,4.36-3.14,7.04v89.49s0,28.53,0,28.53v.41c0,2.6.99,4.88,2.95,6.85.02.02.04.05.06.07.02.02.04.04.06.06.02.02.04.04.06.06.02.02.05.04.07.06,1.97,1.96,4.25,2.95,6.85,2.95h.41s28.53,0,28.53,0h89.49c2.68,0,5.03-1.05,7.04-3.14,2.01-2.1,3.02-4.54,3.02-7.33v-15.36c0-2.79-1.01-5.24-3.02-7.33-2.01-2.1-4.36-3.14-7.04-3.14h-90.92s-1.18-.08-1.18-.08l-.08-1.18v-90.92c0-2.68-1.05-5.03-3.14-7.04-2.09-2.01-4.54-3.02-7.33-3.02h-15.36c-2.79,0-5.24,1.01-7.33,3.02Z" style="fill: #231f20;"/>
  <path d="M625.81,638.01c2.01,2.09,4.36,3.14,7.04,3.14h89.49s28.53,0,28.53,0h.41c2.6,0,4.88-.99,6.85-2.95.02-.02.05-.04.07-.06.02-.02.04-.04.06-.06.02-.02.04-.04.06-.06.02-.02.04-.05.06-.07,1.96-1.97,2.95-4.25,2.95-6.85v-.41s0-28.53,0-28.53v-89.49c0-2.68-1.05-5.03-3.14-7.04-2.1-2.01-4.54-3.02-7.33-3.02h-15.36c-2.79,0-5.24,1.01-7.33,3.02-2.1,2.01-3.14,4.36-3.14,7.04v90.92s-.08,1.18-.08,1.18l-1.18.08h-90.92c-2.68,0-5.03,1.05-7.04,3.14-2.01,2.09-3.02,4.54-3.02,7.33v15.36c0,2.79,1.01,5.24,3.02,7.33Z" style="fill: #231f20;"/>
  <path d="M758.21,311.28c2.09-2.01,3.14-4.36,3.14-7.04v-89.49s0-28.53,0-28.53v-.41c0-2.6-.99-4.88-2.95-6.85-.02-.02-.04-.05-.06-.07-.02-.02-.04-.04-.06-.06-.02-.02-.04-.04-.06-.06-.02-.02-.05-.04-.07-.06-1.97-1.96-4.25-2.95-6.85-2.95h-.41s-28.53,0-28.53,0h-89.49c-2.68,0-5.03,1.05-7.04,3.14-2.01,2.1-3.02,4.54-3.02,7.33v15.36c0,2.79,1.01,5.24,3.02,7.33,2.01,2.1,4.36,3.14,7.04,3.14h90.92s1.18.08,1.18.08l.08,1.18v90.92c0,2.68,1.05,5.03,3.14,7.04,2.09,2.01,4.54,3.02,7.33,3.02h15.36c2.79,0,5.24-1.01,7.33-3.02Z" style="fill: #231f20;"/>
  <path d="M599.11,217.83c-.9-.35-2.95-.3-4.04.41s-203.47,218.64-206.22,221.55-.54,4.69,1.89,4.68,117.21-.6,119.19,0c1.69.12,2.66,1.06,1.89,3.12s-54.86,146.66-54.86,146.66c0,0-1.89,6.24,3.78,3.12,5.68-3.12,206.29-219.46,208.11-221.55s2.29-3.9-2.84-3.9h-117.3s-4.39-.07-3.78-4.68c1.89-1.56,56.48-145.44,56.67-146.4s-1.12-2.56-2.49-3.01Z" style="fill: #231f20;"/>
</svg>