<!-- <svg id="b" data-name="Logo" xmlns="http://www.w3.org/2000/svg" viewBox="0 0 800 150"> -->
<svg xmlns="http://www.w3.org/2000/svg" fill="none" width="115" height="48">
  <defs>
    <style>
      .c {
        fill: #231f20;
      }
    </style>
  </defs>
  <g>
    <path class="c" d="M137.78,122.04c-.49,0-.92-.19-1.28-.57-.37-.38-.55-.83-.55-1.34V34.84c0-.51.18-.95.55-1.34.37-.38.8-.57,1.28-.57h57.98c.49,0,.92.19,1.28.57.37.38.55.83.55,1.34v2.8c0,.51-.18.96-.55,1.34-.37.38-.79.57-1.28.57h-52.97v34.63h38.29c.49,0,.92.19,1.28.57.37.38.55.83.55,1.34v2.8c0,.51-.18.96-.55,1.34-.37.38-.79.57-1.28.57h-38.29v39.34c0,.51-.18.95-.55,1.34s-.79.57-1.28.57h-3.18Z"/>
    <path class="c" d="M206.89,122.04c-.49,0-.92-.19-1.28-.57-.37-.38-.55-.83-.55-1.34v-59.83c0-.51.18-.96.55-1.34.37-.38.79-.57,1.28-.57h2.57c.49,0,.92.19,1.28.57.37.38.55.83.55,1.34v13.37c3.02-4.92,6.69-8.7,11.01-11.33,4.32-2.63,9.01-4.12,14.07-4.46.57,0,1.04.19,1.41.57.37.38.55.87.55,1.46v3.06c0,.59-.23,1.06-.67,1.4-.45.34-1,.51-1.65.51-5.63,0-10.48,1.27-14.56,3.82-4.08,2.55-7.26,6.11-9.54,10.69v40.74c0,.51-.18.95-.55,1.34-.37.38-.79.57-1.28.57h-3.18Z"/>
    <path class="c" d="M249.65,118.73c-3.71-3.31-5.57-8.06-5.57-14.26s2.57-11.2,7.71-14.77,12.48-5.35,22.02-5.35c6.2,0,12.76.85,19.69,2.55v-1.78c0-7.81-1.49-13.58-4.46-17.31-2.98-3.73-8.01-5.6-15.11-5.6-3.67,0-7.32.62-10.95,1.85-3.63,1.23-6.87,2.95-9.73,5.16-.49.34-.9.51-1.22.51-.57,0-1.06-.3-1.47-.89l-.86-1.15c-.24-.42-.37-.81-.37-1.15,0-.68.28-1.19.86-1.53,3.59-2.63,7.54-4.65,11.87-6.05,4.32-1.4,8.69-2.1,13.09-2.1,8.81,0,15.21,2.21,19.21,6.62,4,4.41,5.99,11.16,5.99,20.24v36.41c0,.51-.18.95-.55,1.34-.37.38-.8.57-1.28.57h-2.45c-.49,0-.92-.19-1.28-.57-.37-.38-.55-.83-.55-1.34v-6.88c-3.26,2.63-7.58,5.03-12.97,7.19-5.38,2.16-10.64,3.25-15.78,3.25-6.85,0-12.13-1.66-15.84-4.96ZM282.18,115.42c4.93-2.21,8.7-4.46,11.32-6.75v-17.31c-5.71-1.78-11.62-2.67-17.74-2.67-7.75,0-13.78,1.27-18.1,3.82-4.32,2.55-6.53,6.28-6.61,11.2-.16,5.09,1.22,8.87,4.16,11.33,2.94,2.46,7.14,3.69,12.6,3.69,4.65,0,9.44-1.1,14.37-3.31Z"/>
    <path class="c" d="M316.86,122.04c-.49,0-.92-.19-1.28-.57-.37-.38-.55-.83-.55-1.34v-59.83c0-.51.18-.96.55-1.34.37-.38.79-.57,1.28-.57h2.57c.49,0,.92.19,1.28.57.37.38.55.83.55,1.34v12.22c2.94-5.01,6.56-8.87,10.89-11.58,4.32-2.71,8.85-4.07,13.58-4.07,4.97,0,8.95,1.23,11.93,3.69,2.98,2.46,4.99,6.32,6.06,11.58,2.94-4.84,6.52-8.59,10.76-11.27,4.24-2.67,8.69-4.01,13.33-4.01,6.2,0,10.84,1.95,13.94,5.86,3.1,3.9,4.65,10.14,4.65,18.71v38.7c0,.51-.18.95-.55,1.34s-.79.57-1.28.57h-3.3c-.49,0-.92-.19-1.28-.57-.37-.38-.55-.83-.55-1.34v-36.66c0-7.21-1.2-12.43-3.61-15.66-2.41-3.22-5.93-4.84-10.58-4.84-4.32,0-8.38,1.36-12.17,4.07-3.79,2.72-6.79,6.41-8.99,11.08.24,1.78.37,3.74.37,5.86v36.15c0,.51-.18.95-.55,1.34-.37.38-.79.57-1.28.57h-3.43c-.49,0-.92-.19-1.28-.57-.37-.38-.55-.83-.55-1.34v-36.66c0-7.21-1.2-12.43-3.61-15.66-2.41-3.22-5.93-4.84-10.58-4.84-4.32,0-8.4,1.36-12.23,4.07-3.83,2.72-6.85,6.41-9.05,11.08v42.01c0,.51-.18.95-.55,1.34-.37.38-.79.57-1.28.57h-3.18Z"/>
    <path class="c" d="M435.39,119.18c-4.97-2.93-8.85-6.94-11.62-12.03-2.77-5.09-4.16-10.74-4.16-16.93s1.37-11.84,4.1-16.93c2.73-5.09,6.58-9.1,11.56-12.03,4.97-2.93,10.72-4.39,17.25-4.39,8.48,0,15.29,2.42,20.43,7.26s8.36,11.29,9.66,19.35v2.67c0,.51-.18.95-.55,1.34-.37.38-.79.57-1.28.57h-53.7c-.16,1.1-.2,2.42-.12,3.95.16,4.84,1.39,9.25,3.67,13.24,2.28,3.99,5.42,7.15,9.42,9.48,4,2.34,8.48,3.5,13.46,3.5,3.83,0,7.52-.61,11.07-1.85,3.55-1.23,6.62-2.95,9.24-5.16.32-.34.77-.51,1.34-.51s1.02.25,1.35.76l.98,1.15c.33.34.49.81.49,1.4,0,.43-.12.76-.37,1.02-3.02,2.72-6.71,4.82-11.07,6.3-4.36,1.48-9.03,2.23-14.01,2.23-6.44,0-12.15-1.46-17.13-4.39ZM475.64,82.58c-1.31-6.28-3.9-11.29-7.77-15.02-3.87-3.73-8.99-5.6-15.35-5.6s-11.91,1.91-16.39,5.73c-4.49,3.82-7.42,8.78-8.81,14.89h48.32Z"/>
    <path class="c" d="M517.17,117.65c-7.05-4.03-12.56-9.57-16.51-16.61-3.96-7.04-5.93-14.89-5.93-23.55s1.98-16.51,5.93-23.55c3.95-7.04,9.46-12.58,16.51-16.61,7.05-4.03,15.03-6.05,23.92-6.05s16.84,2.02,23.85,6.05c7.01,4.03,12.5,9.57,16.45,16.61,3.95,7.05,5.93,14.89,5.93,23.55s-1.98,16.51-5.93,23.55c-3.96,7.04-9.44,12.58-16.45,16.61-7.01,4.03-14.97,6.05-23.85,6.05s-16.86-2.02-23.92-6.05ZM555.4,101.93c4.24-2.46,7.56-5.83,9.97-10.12,2.41-4.28,3.61-9.06,3.61-14.32s-1.2-10.03-3.61-14.32c-2.41-4.28-5.73-7.66-9.97-10.12-4.24-2.46-9.01-3.69-14.31-3.69s-10.07,1.23-14.31,3.69c-4.24,2.46-7.58,5.84-10.03,10.12-2.45,4.29-3.67,9.06-3.67,14.32s1.22,10.04,3.67,14.32c2.45,4.29,5.79,7.66,10.03,10.12,4.24,2.46,9.01,3.69,14.31,3.69s10.07-1.23,14.31-3.69Z"/>
    <path class="c" d="M619.98,117.65c-7.1-4.03-12.62-9.57-16.58-16.61-3.96-7.04-5.93-14.89-5.93-23.55s1.98-16.51,5.93-23.55c3.95-7.04,9.48-12.58,16.58-16.61,7.09-4.03,15.13-6.05,24.1-6.05,7.26,0,13.84,1.36,19.76,4.07,5.91,2.72,11.03,6.58,15.35,11.58.49.59.73,1.27.73,2.04,0,.85-.37,1.65-1.1,2.42l-8.81,7.77c-.57.51-1.27.76-2.08.76-.9,0-1.71-.42-2.45-1.27-5.14-6.19-12.27-9.29-21.41-9.29-5.38,0-10.21,1.23-14.5,3.69-4.28,2.46-7.65,5.84-10.09,10.12-2.45,4.29-3.67,9.06-3.67,14.32s1.22,10.04,3.67,14.32c2.45,4.29,5.81,7.66,10.09,10.12,4.28,2.46,9.11,3.69,14.5,3.69,9.13,0,16.27-3.1,21.41-9.29.73-.85,1.59-1.27,2.57-1.27.73,0,1.39.25,1.96.76l8.81,7.77c.81.76,1.22,1.61,1.22,2.55,0,.51-.2,1.06-.61,1.66-4.32,5.09-9.48,9.02-15.47,11.78-5.99,2.76-12.62,4.14-19.88,4.14-8.97,0-17-2.02-24.1-6.05Z"/>
    <path class="c" d="M697.05,122.04c-.82,0-1.53-.32-2.14-.96-.61-.64-.92-1.38-.92-2.23V36.11c0-.93.31-1.7.92-2.29.61-.59,1.32-.89,2.14-.89h40.37c6.03,0,11.32,1.34,15.84,4.01,4.53,2.67,7.99,6.28,10.4,10.82,2.4,4.54,3.61,9.61,3.61,15.21,0,6.11-1.51,11.58-4.53,16.42-3.02,4.84-7.26,8.32-12.72,10.44l13.95,26.35c.33.59.49,1.27.49,2.04,0,1.02-.35,1.91-1.04,2.67-.69.76-1.61,1.15-2.75,1.15h-11.99c-1.06,0-1.83-.47-2.32-1.4l-15.05-27.62h-19.33v25.84c0,.85-.29,1.59-.86,2.23-.57.64-1.31.96-2.2.96h-11.87ZM735.82,75.96c3.99,0,7.2-1.17,9.6-3.5,2.4-2.33,3.61-5.45,3.61-9.36s-1.2-7.06-3.61-9.48c-2.41-2.42-5.61-3.63-9.6-3.63h-23.85v25.97h23.85Z"/>
  </g>
  <g>
    <path d="M50.85,33.15c-.39-.4-.84-.6-1.35-.6h-22.77c-.5,0-.94.19-1.32.57,0,0,0,0-.01.01,0,0,0,0-.01.01,0,0,0,0-.01.01,0,0,0,0-.01.01-.38.38-.57.82-.57,1.32v22.77c0,.52.2.97.6,1.35.4.39.87.58,1.41.58h2.95c.54,0,1.01-.19,1.41-.58.4-.39.6-.84.6-1.35v-17.48l.02-.23.23-.02h17.48c.52,0,.97-.2,1.35-.6.39-.4.58-.87.58-1.41v-2.95c0-.54-.19-1.01-.58-1.41Z"/>
    <path d="M25.39,95.98c-.4.39-.6.84-.6,1.35v17.21s0,5.49,0,5.49v.08c0,.5.19.94.57,1.32,0,0,0,0,.01.01,0,0,0,0,.01.01,0,0,0,0,.01.01,0,0,0,0,.01.01.38.38.82.57,1.32.57h.08s5.49,0,5.49,0h17.21c.52,0,.97-.2,1.35-.6.39-.4.58-.87.58-1.41v-2.95c0-.54-.19-1.01-.58-1.41-.39-.4-.84-.6-1.35-.6h-17.48s-.23-.02-.23-.02l-.02-.23v-17.48c0-.52-.2-.97-.6-1.35-.4-.39-.87-.58-1.41-.58h-2.95c-.54,0-1.01.19-1.41.58Z"/>
    <path d="M88.14,121.44c.39.4.84.6,1.35.6h17.21s5.49,0,5.49,0h.08c.5,0,.94-.19,1.32-.57,0,0,0,0,.01-.01,0,0,0,0,.01-.01,0,0,0,0,.01-.01,0,0,0,0,.01-.01.38-.38.57-.82.57-1.32v-.08s0-5.49,0-5.49v-17.21c0-.52-.2-.97-.6-1.35-.4-.39-.87-.58-1.41-.58h-2.95c-.54,0-1.01.19-1.41.58-.4.39-.6.84-.6,1.35v17.48s-.02.23-.02.23l-.23.02h-17.48c-.52,0-.97.2-1.35.6-.39.4-.58.87-.58,1.41v2.95c0,.54.19,1.01.58,1.41Z"/>
    <path d="M113.6,58.61c.4-.39.6-.84.6-1.35v-17.21s0-5.49,0-5.49v-.08c0-.5-.19-.94-.57-1.32,0,0,0,0-.01-.01,0,0,0,0-.01-.01,0,0,0,0-.01-.01,0,0,0,0-.01-.01-.38-.38-.82-.57-1.32-.57h-.08s-5.49,0-5.49,0h-17.21c-.52,0-.97.2-1.35.6-.39.4-.58.87-.58,1.41v2.95c0,.54.19,1.01.58,1.41.39.4.84.6,1.35.6h17.48s.23.02.23.02l.02.23v17.48c0,.52.2.97.6,1.35.4.39.87.58,1.41.58h2.95c.54,0,1.01-.19,1.41-.58Z"/>
    <path d="M82.96,40.72h-.73l-39.65,42.6.36.9h22.92l.36.6-10.55,28.2s-.36,1.2.73.6,40.02-42.6,40.02-42.6l-.55-.75h-22.56s-1.09-.6-.73-.9,10.91-28.2,10.91-28.2l-.55-.45Z"/>
  </g>
</svg>