<?xml version="1.0" encoding="UTF-8"?>
<svg id="b" data-name="Logo" xmlns="http://www.w3.org/2000/svg" width="800" height="150" viewBox="0 0 800 150">
  <text transform="translate(125.91 122.04) scale(.96 1)" style="fill: #231f20; font-size: 127.3px;"><tspan x="0" y="0" style="font-family: LaroSoft-Light, &apos;Laro Soft&apos;; font-weight: 300; letter-spacing: -.05em;">F</tspan><tspan x="74.98" y="0" style="font-family: LaroSoft-Light, &apos;Laro Soft&apos;; font-weight: 300; letter-spacing: -.03em;">r</tspan><tspan x="116.99" y="0" style="font-family: LaroSoft-Light, &apos;Laro Soft&apos;; font-weight: 300; letter-spacing: 0em;">am</tspan><tspan x="299.67" y="0" style="font-family: LaroSoft-Light, &apos;Laro Soft&apos;; font-weight: 300;">e</tspan><tspan x="377.32" y="0" style="font-family: LaroSoft-SemiBold, &apos;Laro Soft&apos;; font-weight: 600; letter-spacing: -.02em;">O</tspan><tspan x="484.25" y="0" style="font-family: LaroSoft-SemiBold, &apos;Laro Soft&apos;; font-weight: 600; letter-spacing: 0em;">C</tspan><tspan x="582.91" y="0" style="font-family: LaroSoft-SemiBold, &apos;Laro Soft&apos;; font-weight: 600; letter-spacing: 0em;">R</tspan></text>
  <g>
    <path d="M50.85,33.15c-.39-.4-.84-.6-1.35-.6h-22.77c-.5,0-.94.19-1.32.57,0,0,0,0-.01.01,0,0,0,0-.01.01,0,0,0,0-.01.01,0,0,0,0-.01.01-.38.38-.57.82-.57,1.32v22.77c0,.52.2.97.6,1.35.4.39.87.58,1.41.58h2.95c.54,0,1.01-.19,1.41-.58.4-.39.6-.84.6-1.35v-17.48l.02-.23.23-.02h17.48c.52,0,.97-.2,1.35-.6.39-.4.58-.87.58-1.41v-2.95c0-.54-.19-1.01-.58-1.41Z"/>
    <path d="M25.39,95.98c-.4.39-.6.84-.6,1.35v17.21s0,5.49,0,5.49v.08c0,.5.19.94.57,1.32,0,0,0,0,.01.01,0,0,0,0,.01.01,0,0,0,0,.01.01,0,0,0,0,.01.01.38.38.82.57,1.32.57h.08s5.49,0,5.49,0h17.21c.52,0,.97-.2,1.35-.6.39-.4.58-.87.58-1.41v-2.95c0-.54-.19-1.01-.58-1.41-.39-.4-.84-.6-1.35-.6h-17.48s-.23-.02-.23-.02l-.02-.23v-17.48c0-.52-.2-.97-.6-1.35-.4-.39-.87-.58-1.41-.58h-2.95c-.54,0-1.01.19-1.41.58Z"/>
    <path d="M88.14,121.44c.39.4.84.6,1.35.6h17.21s5.49,0,5.49,0h.08c.5,0,.94-.19,1.32-.57,0,0,0,0,.01-.01,0,0,0,0,.01-.01,0,0,0,0,.01-.01,0,0,0,0,.01-.01.38-.38.57-.82.57-1.32v-.08s0-5.49,0-5.49v-17.21c0-.52-.2-.97-.6-1.35-.4-.39-.87-.58-1.41-.58h-2.95c-.54,0-1.01.19-1.41.58-.4.39-.6.84-.6,1.35v17.48s-.02.23-.02.23l-.23.02h-17.48c-.52,0-.97.2-1.35.6-.39.4-.58.87-.58,1.41v2.95c0,.54.19,1.01.58,1.41Z"/>
    <path d="M113.6,58.61c.4-.39.6-.84.6-1.35v-17.21s0-5.49,0-5.49v-.08c0-.5-.19-.94-.57-1.32,0,0,0,0-.01-.01,0,0,0,0-.01-.01,0,0,0,0-.01-.01,0,0,0,0-.01-.01-.38-.38-.82-.57-1.32-.57h-.08s-5.49,0-5.49,0h-17.21c-.52,0-.97.2-1.35.6-.39.4-.58.87-.58,1.41v2.95c0,.54.19,1.01.58,1.41.39.4.84.6,1.35.6h17.48s.23.02.23.02l.02.23v17.48c0,.52.2.97.6,1.35.4.39.87.58,1.41.58h2.95c.54,0,1.01-.19,1.41-.58Z"/>
    <path d="M82.96,40.72h-.73l-39.65,42.6.36.9h22.92l.36.6-10.55,28.2s-.36,1.2.73.6,40.02-42.6,40.02-42.6l-.55-.75h-22.56s-1.09-.6-.73-.9,10.91-28.2,10.91-28.2l-.55-.45Z"/>
  </g>
</svg>