<?xml version="1.0" encoding="UTF-8"?>
<svg id="c" data-name="Logo v2" xmlns="http://www.w3.org/2000/svg" width="520" height="110" viewBox="0 0 520 110">
  <g>
    <path d="M120.79,82.32c-.3,0-.56-.12-.79-.35-.23-.23-.34-.51-.34-.82V28.85c0-.31.11-.59.34-.82.23-.23.49-.35.79-.35h35.55c.3,0,.56.12.79.35.23.23.34.51.34.82v1.72c0,.31-.11.58-.34.82s-.49.35-.79.35h-32.48v21.23h23.48c.3,0,.56.12.79.35.23.23.34.51.34.82v1.72c0,.31-.11.58-.34.82-.22.23-.49.35-.79.35h-23.48v24.12c0,.31-.11.59-.34.82-.22.23-.49.35-.79.35h-1.95Z" style="fill: #231f20;"/>
    <path d="M163.17,82.32c-.3,0-.56-.12-.79-.35-.22-.23-.34-.51-.34-.82v-36.69c0-.31.11-.58.34-.82.23-.23.49-.35.79-.35h1.58c.3,0,.56.12.79.35s.34.51.34.82v8.2c1.85-3.02,4.1-5.33,6.75-6.95,2.65-1.61,5.52-2.52,8.62-2.73.35,0,.64.12.86.35s.34.53.34.9v1.87c0,.36-.14.65-.41.86-.28.21-.61.31-1.01.31-3.45,0-6.43.78-8.93,2.34-2.5,1.56-4.45,3.75-5.85,6.56v24.98c0,.31-.11.59-.34.82-.23.23-.49.35-.79.35h-1.95Z" style="fill: #231f20;"/>
    <path d="M189.38,80.29c-2.28-2.03-3.41-4.94-3.41-8.74s1.57-6.87,4.73-9.05c3.15-2.19,7.65-3.28,13.5-3.28,3.8,0,7.82.52,12.08,1.56v-1.09c0-4.79-.91-8.33-2.74-10.62-1.83-2.29-4.91-3.43-9.26-3.43-2.25,0-4.49.38-6.71,1.13-2.23.75-4.21,1.81-5.96,3.16-.3.21-.55.31-.75.31-.35,0-.65-.18-.9-.55l-.53-.7c-.15-.26-.22-.49-.22-.7,0-.42.17-.73.52-.94,2.2-1.61,4.62-2.85,7.28-3.71,2.65-.86,5.33-1.29,8.03-1.29,5.4,0,9.32,1.35,11.78,4.06,2.45,2.71,3.68,6.84,3.68,12.41v22.32c0,.31-.11.59-.34.82-.23.23-.49.35-.79.35h-1.5c-.3,0-.56-.12-.79-.35-.22-.23-.34-.51-.34-.82v-4.21c-2,1.61-4.65,3.08-7.95,4.41s-6.53,1.99-9.68,1.99c-4.2,0-7.44-1.01-9.71-3.04ZM209.33,78.26c3.02-1.35,5.34-2.73,6.94-4.14v-10.62c-3.5-1.09-7.13-1.64-10.88-1.64-4.75,0-8.45.78-11.1,2.34-2.65,1.56-4,3.85-4.05,6.87-.1,3.12.75,5.44,2.55,6.95,1.8,1.51,4.37,2.26,7.73,2.26,2.85,0,5.79-.68,8.81-2.03Z" style="fill: #231f20;"/>
    <path d="M230.59,82.32c-.3,0-.56-.12-.79-.35-.22-.23-.34-.51-.34-.82v-36.69c0-.31.11-.58.34-.82.23-.23.49-.35.79-.35h1.58c.3,0,.56.12.79.35s.34.51.34.82v7.49c1.8-3.07,4.02-5.44,6.68-7.1,2.65-1.67,5.42-2.5,8.33-2.5,3.05,0,5.49.75,7.31,2.26,1.82,1.51,3.06,3.88,3.71,7.1,1.8-2.97,4-5.27,6.6-6.91,2.6-1.64,5.33-2.46,8.18-2.46,3.8,0,6.65,1.2,8.55,3.59,1.9,2.39,2.85,6.22,2.85,11.47v23.73c0,.31-.11.59-.34.82-.22.23-.49.35-.79.35h-2.03c-.3,0-.56-.12-.79-.35-.22-.23-.34-.51-.34-.82v-22.48c0-4.42-.74-7.62-2.21-9.6-1.48-1.98-3.64-2.97-6.49-2.97-2.65,0-5.14.83-7.46,2.5-2.33,1.67-4.16,3.93-5.51,6.79.15,1.09.22,2.29.22,3.59v22.17c0,.31-.11.59-.34.82-.23.23-.49.35-.79.35h-2.1c-.3,0-.56-.12-.79-.35-.23-.23-.34-.51-.34-.82v-22.48c0-4.42-.74-7.62-2.21-9.6-1.48-1.98-3.64-2.97-6.49-2.97-2.65,0-5.15.83-7.5,2.5-2.35,1.67-4.2,3.93-5.55,6.79v25.76c0,.31-.11.59-.34.82-.23.23-.49.35-.79.35h-1.95Z" style="fill: #231f20;"/>
    <path d="M303.27,80.56c-3.05-1.8-5.43-4.25-7.12-7.38-1.7-3.12-2.55-6.58-2.55-10.38s.84-7.26,2.51-10.38c1.67-3.12,4.04-5.58,7.09-7.38,3.05-1.8,6.57-2.69,10.58-2.69,5.2,0,9.38,1.48,12.53,4.45s5.12,6.92,5.92,11.86v1.64c0,.31-.11.59-.34.82-.23.23-.49.35-.79.35h-32.93c-.1.68-.13,1.48-.08,2.42.1,2.97.85,5.67,2.25,8.12,1.4,2.45,3.33,4.38,5.78,5.81,2.45,1.43,5.2,2.15,8.25,2.15,2.35,0,4.61-.38,6.79-1.13,2.17-.75,4.06-1.81,5.66-3.16.2-.21.47-.31.82-.31s.62.16.83.47l.6.7c.2.21.3.5.3.86,0,.26-.08.47-.22.62-1.85,1.67-4.11,2.95-6.79,3.86-2.68.91-5.54,1.37-8.59,1.37-3.95,0-7.45-.9-10.5-2.69ZM327.95,58.12c-.8-3.85-2.39-6.92-4.76-9.21-2.38-2.29-5.51-3.43-9.41-3.43s-7.3,1.17-10.05,3.51-4.55,5.39-5.4,9.13h29.63Z" style="fill: #231f20;"/>
    <path d="M353.41,79.63c-4.33-2.47-7.7-5.87-10.12-10.19-2.43-4.32-3.64-9.13-3.64-14.44s1.21-10.12,3.64-14.44c2.42-4.32,5.8-7.71,10.12-10.19,4.33-2.47,9.21-3.71,14.66-3.71s10.33,1.24,14.63,3.71c4.3,2.47,7.66,5.87,10.09,10.19,2.42,4.32,3.64,9.13,3.64,14.44s-1.21,10.12-3.64,14.44c-2.43,4.32-5.79,7.71-10.09,10.19-4.3,2.47-9.18,3.71-14.63,3.71s-10.34-1.24-14.66-3.71ZM376.85,69.99c2.6-1.51,4.64-3.58,6.11-6.21,1.47-2.63,2.21-5.55,2.21-8.78s-.74-6.15-2.21-8.78c-1.48-2.63-3.51-4.7-6.11-6.21-2.6-1.51-5.53-2.26-8.78-2.26s-6.18.75-8.78,2.26c-2.6,1.51-4.65,3.58-6.15,6.21-1.5,2.63-2.25,5.56-2.25,8.78s.75,6.15,2.25,8.78c1.5,2.63,3.55,4.7,6.15,6.21,2.6,1.51,5.52,2.26,8.78,2.26s6.17-.75,8.78-2.26Z" style="fill: #231f20;"/>
    <path d="M416.45,79.63c-4.35-2.47-7.74-5.87-10.16-10.19-2.43-4.32-3.64-9.13-3.64-14.44s1.21-10.12,3.64-14.44c2.42-4.32,5.81-7.71,10.16-10.19,4.35-2.47,9.27-3.71,14.78-3.71,4.45,0,8.49.83,12.11,2.5,3.62,1.67,6.76,4.03,9.41,7.1.3.36.45.78.45,1.25,0,.52-.22,1.01-.67,1.48l-5.4,4.76c-.35.31-.78.47-1.27.47-.55,0-1.05-.26-1.5-.78-3.15-3.8-7.53-5.7-13.13-5.7-3.3,0-6.26.75-8.89,2.26-2.62,1.51-4.69,3.58-6.19,6.21-1.5,2.63-2.25,5.56-2.25,8.78s.75,6.15,2.25,8.78c1.5,2.63,3.56,4.7,6.19,6.21,2.62,1.51,5.59,2.26,8.89,2.26,5.6,0,9.98-1.9,13.13-5.7.45-.52.97-.78,1.57-.78.45,0,.85.16,1.2.47l5.4,4.76c.5.47.75.99.75,1.56,0,.31-.12.65-.38,1.01-2.65,3.12-5.81,5.53-9.49,7.22-3.68,1.69-7.74,2.54-12.19,2.54-5.5,0-10.43-1.24-14.78-3.71Z" style="fill: #231f20;"/>
    <path d="M463.7,82.32c-.5,0-.94-.2-1.31-.58-.38-.39-.56-.85-.56-1.37V29.63c0-.57.19-1.04.56-1.41.38-.36.81-.55,1.31-.55h24.75c3.7,0,6.94.82,9.71,2.46,2.78,1.64,4.9,3.85,6.38,6.63,1.47,2.78,2.21,5.89,2.21,9.33,0,3.75-.93,7.1-2.77,10.07-1.85,2.97-4.45,5.1-7.8,6.4l8.55,16.16c.2.37.3.78.3,1.25,0,.62-.21,1.17-.64,1.64-.43.47-.99.7-1.69.7h-7.35c-.65,0-1.12-.29-1.42-.86l-9.23-16.94h-11.85v15.85c0,.52-.18.98-.52,1.37-.35.39-.8.58-1.35.58h-7.28ZM487.48,54.06c2.45,0,4.41-.71,5.89-2.15,1.47-1.43,2.21-3.34,2.21-5.74s-.74-4.33-2.21-5.81c-1.48-1.48-3.44-2.22-5.89-2.22h-14.63v15.92h14.63Z" style="fill: #231f20;"/>
  </g>
  <g>
    <path d="M39.31,10.86c-.39-.4-.84-.6-1.35-.6H15.18c-.5,0-.94.19-1.32.57,0,0,0,0-.01.01,0,0,0,0-.01.01,0,0,0,0-.01.01,0,0,0,0-.01.01-.38.38-.57.82-.57,1.32v22.77c0,.52.2.97.6,1.35.4.39.87.58,1.41.58h2.95c.54,0,1.01-.19,1.41-.58.4-.39.6-.84.6-1.35v-17.48l.02-.23.23-.02h17.48c.52,0,.97-.2,1.35-.6.39-.4.58-.87.58-1.41v-2.95c0-.54-.19-1.01-.58-1.41Z"/>
    <path d="M13.85,73.68c-.4.39-.6.84-.6,1.35v17.21s0,5.49,0,5.49v.08c0,.5.19.94.57,1.32,0,0,0,0,.01.01,0,0,0,0,.01.01,0,0,0,0,.01.01,0,0,0,0,.01.01.38.38.82.57,1.32.57h.08s5.49,0,5.49,0h17.21c.52,0,.97-.2,1.35-.6.39-.4.58-.87.58-1.41v-2.95c0-.54-.19-1.01-.58-1.41-.39-.4-.84-.6-1.35-.6h-17.48s-.23-.02-.23-.02l-.02-.23v-17.48c0-.52-.2-.97-.6-1.35-.4-.39-.87-.58-1.41-.58h-2.95c-.54,0-1.01.19-1.41.58Z"/>
    <path d="M76.6,99.14c.39.4.84.6,1.35.6h17.21s5.49,0,5.49,0h.08c.5,0,.94-.19,1.32-.57,0,0,0,0,.01-.01,0,0,0,0,.01-.01,0,0,0,0,.01-.01,0,0,0,0,.01-.01.38-.38.57-.82.57-1.32v-.08s0-5.49,0-5.49v-17.21c0-.52-.2-.97-.6-1.35-.4-.39-.87-.58-1.41-.58h-2.95c-.54,0-1.01.19-1.41.58-.4.39-.6.84-.6,1.35v17.48s-.02.23-.02.23l-.23.02h-17.48c-.52,0-.97.2-1.35.6-.39.4-.58.87-.58,1.41v2.95c0,.54.19,1.01.58,1.41Z"/>
    <path d="M102.06,36.32c.4-.39.6-.84.6-1.35v-17.21s0-5.49,0-5.49v-.08c0-.5-.19-.94-.57-1.32,0,0,0,0-.01-.01,0,0,0,0-.01-.01,0,0,0,0-.01-.01,0,0,0,0-.01-.01-.38-.38-.82-.57-1.32-.57h-.08s-5.49,0-5.49,0h-17.21c-.52,0-.97.2-1.35.6-.39.4-.58.87-.58,1.41v2.95c0,.54.19,1.01.58,1.41.39.4.84.6,1.35.6h17.48s.23.02.23.02l.02.23v17.48c0,.52.2.97.6,1.35.4.39.87.58,1.41.58h2.95c.54,0,1.01-.19,1.41-.58Z"/>
    <path d="M71.42,18.42h-.73L31.04,61.03l.36.9h22.92l.36.6-10.55,28.2s-.36,1.2.73.6,40.02-42.6,40.02-42.6l-.55-.75h-22.56s-1.09-.6-.73-.9,10.91-28.2,10.91-28.2l-.55-.45Z"/>
  </g>
</svg>